<?xml version="1.0" encoding="UTF-8" standalone="no"?>
<svg
   xmlns:dc="http://purl.org/dc/elements/1.1/"
   xmlns:cc="http://creativecommons.org/ns#"
   xmlns:rdf="http://www.w3.org/1999/02/22-rdf-syntax-ns#"
   xmlns:svg="http://www.w3.org/2000/svg"
   xmlns="http://www.w3.org/2000/svg"
   xmlns:sodipodi="http://sodipodi.sourceforge.net/DTD/sodipodi-0.dtd"
   xmlns:inkscape="http://www.inkscape.org/namespaces/inkscape"
   width="100%"
   height="100%"
   viewBox="0 0 139.17083 197.90834"
   version="1.1"
   id="svg1305"
   inkscape:version="1.0.1 (3bc2e813f5, 2020-09-07)"
   sodipodi:docname="drawinggrid.svg">
  <defs
     id="defs1299" />
  <sodipodi:namedview
     id="base"
     pagecolor="#ffffff"
     bordercolor="#666666"
     borderopacity="1.0"
     inkscape:pageopacity="0.0"
     inkscape:pageshadow="2"
     inkscape:zoom="0.7"
     inkscape:cx="287.41522"
     inkscape:cy="221.50875"
     inkscape:document-units="mm"
     inkscape:current-layer="layer1"
     inkscape:document-rotation="0"
     showgrid="true"
     units="px"
     inkscape:window-width="1024"
     inkscape:window-height="745"
     inkscape:window-x="-8"
     inkscape:window-y="-8"
     inkscape:window-maximized="1">
    <inkscape:grid
       type="xygrid"
       id="grid1868" />
  </sodipodi:namedview>
  <metadata
     id="metadata1302">
    <rdf:RDF>
      <cc:Work
         rdf:about="">
        <dc:format>image/svg+xml</dc:format>
        <dc:type
           rdf:resource="http://purl.org/dc/dcmitype/StillImage" />
        <dc:title></dc:title>
      </cc:Work>
    </rdf:RDF>
  </metadata>
  <g
     inkscape:label="Layer 1"
     inkscape:groupmode="layer"
     id="layer1"
     style="opacity:0.998">
    <path
       style="fill:none;stroke:#ffffff;stroke-width:0.264583px;stroke-linecap:butt;stroke-linejoin:miter;stroke-opacity:1"
       d="m 5.2916666,0 c 0,195.79166 0,195.79166 0,195.79166"
       id="path1878" />
    <path
       style="fill:none;stroke:#ffffff;stroke-width:0.264583px;stroke-linecap:butt;stroke-linejoin:miter;stroke-opacity:1"
       d="m 10.583333,0 c 0,195.79166 0,195.79166 0,195.79166"
       id="path1880" />
    <path
       style="fill:none;stroke:#ffffff;stroke-width:0.264583px;stroke-linecap:butt;stroke-linejoin:miter;stroke-opacity:1"
       d="m 15.875,0 c 0,195.79166 0,195.79166 0,195.79166"
       id="path1882" />
    <path
       style="fill:none;stroke:#ffffff;stroke-width:0.264583px;stroke-linecap:butt;stroke-linejoin:miter;stroke-opacity:1"
       d="M 21.166667,1.6666666e-6 C 21.166667,195.79167 21.166667,195.79167 21.166667,195.79167"
       id="path1878-8" />
    <path
       style="fill:none;stroke:#ffffff;stroke-width:0.264583px;stroke-linecap:butt;stroke-linejoin:miter;stroke-opacity:1"
       d="M 26.458334,1.6666666e-6 C 26.458334,195.79167 26.458334,195.79167 26.458334,195.79167"
       id="path1880-0" />
    <path
       style="fill:none;stroke:#ffffff;stroke-width:0.264583px;stroke-linecap:butt;stroke-linejoin:miter;stroke-opacity:1"
       d="M 31.750001,1.6666666e-6 C 31.750001,195.79167 31.750001,195.79167 31.750001,195.79167"
       id="path1882-3" />
    <path
       style="fill:none;stroke:#ffffff;stroke-width:0.264583px;stroke-linecap:butt;stroke-linejoin:miter;stroke-opacity:1"
       d="m 37.041666,0 c 0,195.79166 0,195.79166 0,195.79166"
       id="path1878-2" />
    <path
       style="fill:none;stroke:#ffffff;stroke-width:0.264583px;stroke-linecap:butt;stroke-linejoin:miter;stroke-opacity:1"
       d="m 42.333333,0 c 0,195.79166 0,195.79166 0,195.79166"
       id="path1880-4" />
    <path
       style="fill:none;stroke:#ffffff;stroke-width:0.264583px;stroke-linecap:butt;stroke-linejoin:miter;stroke-opacity:1"
       d="m 47.625,0 c 0,195.79166 0,195.79166 0,195.79166"
       id="path1882-38" />
    <path
       style="fill:none;stroke:#ffffff;stroke-width:0.264583px;stroke-linecap:butt;stroke-linejoin:miter;stroke-opacity:1"
       d="m 52.916667,0 c 0,195.79167 0,195.79167 0,195.79167"
       id="path1878-8-8" />
    <path
       style="fill:none;stroke:#ffffff;stroke-width:0.264583px;stroke-linecap:butt;stroke-linejoin:miter;stroke-opacity:1"
       d="m 58.208334,0 c 0,195.79167 0,195.79167 0,195.79167"
       id="path1880-0-5" />
    <path
       style="fill:none;stroke:#ffffff;stroke-width:0.264583px;stroke-linecap:butt;stroke-linejoin:miter;stroke-opacity:1"
       d="m 63.5,0 c 0,195.79167 0,195.79167 0,195.79167"
       id="path1882-3-7" />
    <path
       style="fill:none;stroke:#ffffff;stroke-width:0.264583px;stroke-linecap:butt;stroke-linejoin:miter;stroke-opacity:1"
       d="m 68.791667,0 c 0,195.79166 0,195.79166 0,195.79166"
       id="path1878-3" />
    <path
       style="fill:none;stroke:#ffffff;stroke-width:0.264583px;stroke-linecap:butt;stroke-linejoin:miter;stroke-opacity:1"
       d="m 74.083333,0 c 0,195.79166 0,195.79166 0,195.79166"
       id="path1880-1" />
    <path
       style="fill:none;stroke:#ffffff;stroke-width:0.264583px;stroke-linecap:butt;stroke-linejoin:miter;stroke-opacity:1"
       d="m 79.375,0 c 0,195.79166 0,195.79166 0,195.79166"
       id="path1882-4" />
    <path
       style="fill:none;stroke:#ffffff;stroke-width:0.264583px;stroke-linecap:butt;stroke-linejoin:miter;stroke-opacity:1"
       d="m 84.666667,0 c 0,195.79167 0,195.79167 0,195.79167"
       id="path1878-8-3" />
    <path
       style="fill:none;stroke:#ffffff;stroke-width:0.264583px;stroke-linecap:butt;stroke-linejoin:miter;stroke-opacity:1"
       d="m 89.958337,0 c 0,195.79167 0,195.79167 0,195.79167"
       id="path1880-0-8" />
    <path
       style="fill:none;stroke:#ffffff;stroke-width:0.264583px;stroke-linecap:butt;stroke-linejoin:miter;stroke-opacity:1"
       d="m 95.249997,0 c 0,195.79167 0,195.79167 0,195.79167"
       id="path1882-3-8" />
    <path
       style="fill:none;stroke:#ffffff;stroke-width:0.264583px;stroke-linecap:butt;stroke-linejoin:miter;stroke-opacity:1"
       d="m 100.54167,0 c 0,195.79166 0,195.79166 0,195.79166"
       id="path1878-2-7" />
    <path
       style="fill:none;stroke:#ffffff;stroke-width:0.264583px;stroke-linecap:butt;stroke-linejoin:miter;stroke-opacity:1"
       d="m 105.83334,0 c 0,195.79166 0,195.79166 0,195.79166"
       id="path1880-4-3" />
    <path
       style="fill:none;stroke:#ffffff;stroke-width:0.264583px;stroke-linecap:butt;stroke-linejoin:miter;stroke-opacity:1"
       d="m 111.125,0 c 0,195.79166 0,195.79166 0,195.79166"
       id="path1882-38-3" />
    <path
       style="fill:none;stroke:#ffffff;stroke-width:0.264583px;stroke-linecap:butt;stroke-linejoin:miter;stroke-opacity:1"
       d="m 116.41667,0 c 0,195.79167 0,195.79167 0,195.79167"
       id="path1878-8-8-0" />
    <path
       style="fill:none;stroke:#ffffff;stroke-width:0.264583px;stroke-linecap:butt;stroke-linejoin:miter;stroke-opacity:1"
       d="m 121.70834,0 c 0,195.79167 0,195.79167 0,195.79167"
       id="path1880-0-5-0" />
    <path
       style="fill:none;stroke:#ffffff;stroke-width:0.264583px;stroke-linecap:butt;stroke-linejoin:miter;stroke-opacity:1"
       d="m 127,0 c 0,195.79167 0,195.79167 0,195.79167"
       id="path1882-3-7-3" />
    <path
       style="fill:none;stroke:#ffffff;stroke-width:0.264583px;stroke-linecap:butt;stroke-linejoin:miter;stroke-opacity:1"
       d="m 132.29167,0 c 0,195.79167 0,195.79167 0,195.79167"
       id="path1880-0-5-0-4" />
    <path
       style="fill:none;stroke:#ffffff;stroke-width:0.264583px;stroke-linecap:butt;stroke-linejoin:miter;stroke-opacity:1"
       d="m 137.58333,0 c 0,195.79167 0,195.79167 0,195.79167"
       id="path1882-3-7-3-2" />
    <path
       style="fill:none;stroke:#ffffff;stroke-width:0.264583px;stroke-linecap:butt;stroke-linejoin:miter;stroke-opacity:1"
       d="m 0,5.2916666 c 137.58333,0 137.58333,0 137.58333,0"
       id="path2001" />
    <path
       style="fill:none;stroke:#ffffff;stroke-width:0.264583px;stroke-linecap:butt;stroke-linejoin:miter;stroke-opacity:1"
       d="m 0,10.583333 c 137.58333,0 137.58333,0 137.58333,0"
       id="path2003" />
    <path
       style="fill:none;stroke:#ffffff;stroke-width:0.264583px;stroke-linecap:butt;stroke-linejoin:miter;stroke-opacity:1"
       d="m 0,15.875 c 137.58333,0 137.58333,0 137.58333,0"
       id="path2001-8" />
    <path
       style="fill:none;stroke:#ffffff;stroke-width:0.264583px;stroke-linecap:butt;stroke-linejoin:miter;stroke-opacity:1"
       d="m 0,21.166667 c 137.58333,0 137.58333,0 137.58333,0"
       id="path2003-9" />
    <path
       style="fill:none;stroke:#ffffff;stroke-width:0.264583px;stroke-linecap:butt;stroke-linejoin:miter;stroke-opacity:1"
       d="M 3.3333333e-6,26.458334 C 137.58333,26.458334 137.58333,26.458334 137.58333,26.458334"
       id="path2001-6" />
    <path
       style="fill:none;stroke:#ffffff;stroke-width:0.264583px;stroke-linecap:butt;stroke-linejoin:miter;stroke-opacity:1"
       d="M 3.3333333e-6,31.750001 C 137.58333,31.750001 137.58333,31.750001 137.58333,31.750001"
       id="path2003-4" />
    <path
       style="fill:none;stroke:#ffffff;stroke-width:0.264583px;stroke-linecap:butt;stroke-linejoin:miter;stroke-opacity:1"
       d="M 3.3333333e-6,37.041667 C 137.58333,37.041667 137.58333,37.041667 137.58333,37.041667"
       id="path2001-8-5" />
    <path
       style="fill:none;stroke:#ffffff;stroke-width:0.264583px;stroke-linecap:butt;stroke-linejoin:miter;stroke-opacity:1"
       d="M 3.3333333e-6,42.333334 C 137.58333,42.333334 137.58333,42.333334 137.58333,42.333334"
       id="path2003-9-0" />
    <path
       style="fill:none;stroke:#ffffff;stroke-width:0.264583px;stroke-linecap:butt;stroke-linejoin:miter;stroke-opacity:1"
       d="M 3.3333333e-6,47.624999 C 137.58333,47.624999 137.58333,47.624999 137.58333,47.624999"
       id="path2001-2" />
    <path
       style="fill:none;stroke:#ffffff;stroke-width:0.264583px;stroke-linecap:butt;stroke-linejoin:miter;stroke-opacity:1"
       d="M 3.3333333e-6,52.916666 C 137.58333,52.916666 137.58333,52.916666 137.58333,52.916666"
       id="path2003-3" />
    <path
       style="fill:none;stroke:#ffffff;stroke-width:0.264583px;stroke-linecap:butt;stroke-linejoin:miter;stroke-opacity:1"
       d="M 3.3333333e-6,58.208333 C 137.58333,58.208333 137.58333,58.208333 137.58333,58.208333"
       id="path2001-8-6" />
    <path
       style="fill:none;stroke:#ffffff;stroke-width:0.264583px;stroke-linecap:butt;stroke-linejoin:miter;stroke-opacity:1"
       d="M 3.3333333e-6,63.5 C 137.58333,63.5 137.58333,63.5 137.58333,63.5"
       id="path2003-9-2" />
    <path
       style="fill:none;stroke:#ffffff;stroke-width:0.264583px;stroke-linecap:butt;stroke-linejoin:miter;stroke-opacity:1"
       d="M 6.3333333e-6,68.791667 C 137.58333,68.791667 137.58333,68.791667 137.58333,68.791667"
       id="path2001-6-5" />
    <path
       style="fill:none;stroke:#ffffff;stroke-width:0.264583px;stroke-linecap:butt;stroke-linejoin:miter;stroke-opacity:1"
       d="M 6.3333333e-6,74.083333 C 137.58333,74.083333 137.58333,74.083333 137.58333,74.083333"
       id="path2003-4-2" />
    <path
       style="fill:none;stroke:#ffffff;stroke-width:0.264583px;stroke-linecap:butt;stroke-linejoin:miter;stroke-opacity:1"
       d="M 6.3333333e-6,79.375 C 137.58333,79.375 137.58333,79.375 137.58333,79.375"
       id="path2001-8-5-1" />
    <path
       style="fill:none;stroke:#ffffff;stroke-width:0.264583px;stroke-linecap:butt;stroke-linejoin:miter;stroke-opacity:1"
       d="M 6.3333333e-6,84.666666 C 137.58333,84.666666 137.58333,84.666666 137.58333,84.666666"
       id="path2003-9-0-5" />
    <path
       style="fill:none;stroke:#ffffff;stroke-width:0.264583px;stroke-linecap:butt;stroke-linejoin:miter;stroke-opacity:1"
       d="M 6.3333333e-6,89.958334 C 137.58333,89.958334 137.58333,89.958334 137.58333,89.958334"
       id="path2001-0" />
    <path
       style="fill:none;stroke:#ffffff;stroke-width:0.264583px;stroke-linecap:butt;stroke-linejoin:miter;stroke-opacity:1"
       d="M 6.3333333e-6,95.25 C 137.58333,95.25 137.58333,95.25 137.58333,95.25"
       id="path2003-7" />
    <path
       style="fill:none;stroke:#ffffff;stroke-width:0.264583px;stroke-linecap:butt;stroke-linejoin:miter;stroke-opacity:1"
       d="M 6.3333333e-6,100.54167 C 137.58333,100.54167 137.58333,100.54167 137.58333,100.54167"
       id="path2001-8-9" />
    <path
       style="fill:none;stroke:#ffffff;stroke-width:0.264583px;stroke-linecap:butt;stroke-linejoin:miter;stroke-opacity:1"
       d="M 6.3333333e-6,105.83333 C 137.58333,105.83333 137.58333,105.83333 137.58333,105.83333"
       id="path2003-9-6" />
    <path
       style="fill:none;stroke:#ffffff;stroke-width:0.264583px;stroke-linecap:butt;stroke-linejoin:miter;stroke-opacity:1"
       d="M 6.3333333e-6,111.125 C 137.58333,111.125 137.58333,111.125 137.58333,111.125"
       id="path2001-6-1" />
    <path
       style="fill:none;stroke:#ffffff;stroke-width:0.264583px;stroke-linecap:butt;stroke-linejoin:miter;stroke-opacity:1"
       d="M 6.3333333e-6,116.41667 C 137.58333,116.41667 137.58333,116.41667 137.58333,116.41667"
       id="path2003-4-0" />
    <path
       style="fill:none;stroke:#ffffff;stroke-width:0.264583px;stroke-linecap:butt;stroke-linejoin:miter;stroke-opacity:1"
       d="M 6.3333333e-6,121.70833 C 137.58333,121.70833 137.58333,121.70833 137.58333,121.70833"
       id="path2001-8-5-4" />
    <path
       style="fill:none;stroke:#ffffff;stroke-width:0.264583px;stroke-linecap:butt;stroke-linejoin:miter;stroke-opacity:1"
       d="M 6.3333333e-6,127 C 137.58333,127 137.58333,127 137.58333,127"
       id="path2003-9-0-3" />
    <path
       style="fill:none;stroke:#ffffff;stroke-width:0.264583px;stroke-linecap:butt;stroke-linejoin:miter;stroke-opacity:1"
       d="M 6.3333333e-6,132.29167 C 137.58333,132.29167 137.58333,132.29167 137.58333,132.29167"
       id="path2001-2-4" />
    <path
       style="fill:none;stroke:#ffffff;stroke-width:0.264583px;stroke-linecap:butt;stroke-linejoin:miter;stroke-opacity:1"
       d="M 6.3333333e-6,137.58333 C 137.58333,137.58333 137.58333,137.58333 137.58333,137.58333"
       id="path2003-3-3" />
    <path
       style="fill:none;stroke:#ffffff;stroke-width:0.264583px;stroke-linecap:butt;stroke-linejoin:miter;stroke-opacity:1"
       d="M 6.3333333e-6,142.875 C 137.58333,142.875 137.58333,142.875 137.58333,142.875"
       id="path2001-8-6-6" />
    <path
       style="fill:none;stroke:#ffffff;stroke-width:0.264583px;stroke-linecap:butt;stroke-linejoin:miter;stroke-opacity:1"
       d="M 6.3333333e-6,148.16666 C 137.58333,148.16666 137.58333,148.16666 137.58333,148.16666"
       id="path2003-9-2-2" />
    <path
       style="fill:none;stroke:#ffffff;stroke-width:0.264583px;stroke-linecap:butt;stroke-linejoin:miter;stroke-opacity:1"
       d="M 6.3333333e-6,153.45833 C 137.58333,153.45833 137.58333,153.45833 137.58333,153.45833"
       id="path2001-6-5-1" />
    <path
       style="fill:none;stroke:#ffffff;stroke-width:0.264583px;stroke-linecap:butt;stroke-linejoin:miter;stroke-opacity:1"
       d="M 6.3333333e-6,158.75 C 137.58333,158.75 137.58333,158.75 137.58333,158.75"
       id="path2003-4-2-2" />
    <path
       style="fill:none;stroke:#ffffff;stroke-width:0.264583px;stroke-linecap:butt;stroke-linejoin:miter;stroke-opacity:1"
       d="M 6.3333333e-6,164.04166 C 137.58333,164.04166 137.58333,164.04166 137.58333,164.04166"
       id="path2001-8-5-1-9" />
    <path
       style="fill:none;stroke:#ffffff;stroke-width:0.264583px;stroke-linecap:butt;stroke-linejoin:miter;stroke-opacity:1"
       d="M 6.3333333e-6,169.33333 C 137.58333,169.33333 137.58333,169.33333 137.58333,169.33333"
       id="path2003-9-0-5-7" />
    <path
       style="fill:none;stroke:#ffffff;stroke-width:0.264583px;stroke-linecap:butt;stroke-linejoin:miter;stroke-opacity:1"
       d="M 6.3333333e-6,174.625 C 137.58333,174.625 137.58333,174.625 137.58333,174.625"
       id="path2001-6-5-1-3" />
    <path
       style="fill:none;stroke:#ffffff;stroke-width:0.264583px;stroke-linecap:butt;stroke-linejoin:miter;stroke-opacity:1"
       d="M 6.3333333e-6,179.91667 C 137.58333,179.91667 137.58333,179.91667 137.58333,179.91667"
       id="path2003-4-2-2-7" />
    <path
       style="fill:none;stroke:#ffffff;stroke-width:0.264583px;stroke-linecap:butt;stroke-linejoin:miter;stroke-opacity:1"
       d="M 6.3333333e-6,185.20833 C 137.58333,185.20833 137.58333,185.20833 137.58333,185.20833"
       id="path2001-8-5-1-9-5" />
    <path
       style="fill:none;stroke:#ffffff;stroke-width:0.264583px;stroke-linecap:butt;stroke-linejoin:miter;stroke-opacity:1"
       d="M 6.3333333e-6,190.5 C 137.58333,190.5 137.58333,190.5 137.58333,190.5"
       id="path2003-9-0-5-7-8" />
    <path
       style="fill:none;stroke:#ffffff;stroke-width:0.264583px;stroke-linecap:butt;stroke-linejoin:miter;stroke-opacity:1"
       d="M 0,0 C 137.58333,0 137.58333,0 137.58333,0"
       id="path2185" />
    <path
       style="fill:none;stroke:#ffffff;stroke-width:0.264583px;stroke-linecap:butt;stroke-linejoin:miter;stroke-opacity:1"
       d="m 0,195.79166 c 137.58333,0 137.58333,0 137.58333,0"
       id="path2187" />
  </g>
</svg>
